<mxfile host="65bd71144e">
    <diagram id="A6htL-O3C5CXwzYUjrFz" name="Page-1">
        <mxGraphModel dx="2677" dy="1020" grid="1" gridSize="10" guides="1" tooltips="1" connect="1" arrows="1" fold="1" page="1" pageScale="1" pageWidth="827" pageHeight="1169" background="#FFFFFF" math="0" shadow="0">
            <root>
                <mxCell id="0"/>
                <mxCell id="1" parent="0"/>
                <mxCell id="zVeAq9Etrk2vOx-nxOOo-1" value="creatAdmin" style="swimlane;fontStyle=1;align=center;verticalAlign=top;childLayout=stackLayout;horizontal=1;startSize=60;horizontalStack=0;resizeParent=1;resizeParentMax=0;resizeLast=0;collapsible=1;marginBottom=0;fontSize=20;fillColor=#60a917;strokeColor=#2D7600;fontColor=#ffffff;" parent="1" vertex="1">
                    <mxGeometry x="-280" y="40" width="220" height="188" as="geometry"/>
                </mxCell>
                <mxCell id="zVeAq9Etrk2vOx-nxOOo-2" value="+lastname:string&#10;+firstname:string&#10;+mail:string&#10;+mdp:string" style="text;strokeColor=#006EAF;fillColor=#1ba1e2;align=left;verticalAlign=top;spacingLeft=4;spacingRight=4;overflow=hidden;rotatable=0;points=[[0,0.5],[1,0.5]];portConstraint=eastwest;fontSize=18;fontColor=#ffffff;" parent="zVeAq9Etrk2vOx-nxOOo-1" vertex="1">
                    <mxGeometry y="60" width="220" height="120" as="geometry"/>
                </mxCell>
                <mxCell id="zVeAq9Etrk2vOx-nxOOo-3" value="" style="line;strokeWidth=1;fillColor=none;align=left;verticalAlign=middle;spacingTop=-1;spacingLeft=3;spacingRight=3;rotatable=0;labelPosition=right;points=[];portConstraint=eastwest;" parent="zVeAq9Etrk2vOx-nxOOo-1" vertex="1">
                    <mxGeometry y="180" width="220" height="8" as="geometry"/>
                </mxCell>
                <mxCell id="BFtSv0qSV-2gtylAWcpn-1" value="recupInfo" style="swimlane;fontStyle=1;align=center;verticalAlign=top;childLayout=stackLayout;horizontal=1;startSize=60;horizontalStack=0;resizeParent=1;resizeParentMax=0;resizeLast=0;collapsible=1;marginBottom=0;fontSize=20;fillColor=#60a917;strokeColor=#2D7600;fontColor=#ffffff;" parent="1" vertex="1">
                    <mxGeometry x="-20" y="40" width="220" height="188" as="geometry"/>
                </mxCell>
                <mxCell id="BFtSv0qSV-2gtylAWcpn-2" value="+ id:int&#10;+mail:string&#10;+mdp:string&#10;+firstname:string" style="text;strokeColor=#006EAF;fillColor=#1ba1e2;align=left;verticalAlign=top;spacingLeft=4;spacingRight=4;overflow=hidden;rotatable=0;points=[[0,0.5],[1,0.5]];portConstraint=eastwest;fontSize=18;fontColor=#ffffff;" parent="BFtSv0qSV-2gtylAWcpn-1" vertex="1">
                    <mxGeometry y="60" width="220" height="120" as="geometry"/>
                </mxCell>
                <mxCell id="BFtSv0qSV-2gtylAWcpn-3" value="" style="line;strokeWidth=1;fillColor=none;align=left;verticalAlign=middle;spacingTop=-1;spacingLeft=3;spacingRight=3;rotatable=0;labelPosition=right;points=[];portConstraint=eastwest;" parent="BFtSv0qSV-2gtylAWcpn-1" vertex="1">
                    <mxGeometry y="180" width="220" height="8" as="geometry"/>
                </mxCell>
                <mxCell id="BFtSv0qSV-2gtylAWcpn-5" value="listerProduit" style="swimlane;fontStyle=1;align=center;verticalAlign=top;childLayout=stackLayout;horizontal=1;startSize=60;horizontalStack=0;resizeParent=1;resizeParentMax=0;resizeLast=0;collapsible=1;marginBottom=0;fontSize=20;fillColor=#60a917;strokeColor=#2D7600;fontColor=#ffffff;" parent="1" vertex="1">
                    <mxGeometry x="230" y="40" width="220" height="188" as="geometry"/>
                </mxCell>
                <mxCell id="BFtSv0qSV-2gtylAWcpn-6" value="+ id:int&#10;+name:string&#10;+description:string&#10;+price:float&#10;+categories:string" style="text;strokeColor=#006EAF;fillColor=#1ba1e2;align=left;verticalAlign=top;spacingLeft=4;spacingRight=4;overflow=hidden;rotatable=0;points=[[0,0.5],[1,0.5]];portConstraint=eastwest;fontSize=18;fontColor=#ffffff;" parent="BFtSv0qSV-2gtylAWcpn-5" vertex="1">
                    <mxGeometry y="60" width="220" height="120" as="geometry"/>
                </mxCell>
                <mxCell id="BFtSv0qSV-2gtylAWcpn-7" value="" style="line;strokeWidth=1;fillColor=none;align=left;verticalAlign=middle;spacingTop=-1;spacingLeft=3;spacingRight=3;rotatable=0;labelPosition=right;points=[];portConstraint=eastwest;" parent="BFtSv0qSV-2gtylAWcpn-5" vertex="1">
                    <mxGeometry y="180" width="220" height="8" as="geometry"/>
                </mxCell>
                <mxCell id="BFtSv0qSV-2gtylAWcpn-8" value="deleteProduit" style="swimlane;fontStyle=1;align=center;verticalAlign=top;childLayout=stackLayout;horizontal=1;startSize=60;horizontalStack=0;resizeParent=1;resizeParentMax=0;resizeLast=0;collapsible=1;marginBottom=0;fontSize=20;fillColor=#60a917;strokeColor=#2D7600;fontColor=#ffffff;" parent="1" vertex="1">
                    <mxGeometry x="480" y="40" width="220" height="188" as="geometry"/>
                </mxCell>
                <mxCell id="BFtSv0qSV-2gtylAWcpn-9" value="" style="text;strokeColor=#006EAF;fillColor=#1ba1e2;align=left;verticalAlign=top;spacingLeft=4;spacingRight=4;overflow=hidden;rotatable=0;points=[[0,0.5],[1,0.5]];portConstraint=eastwest;fontSize=18;fontColor=#ffffff;" parent="BFtSv0qSV-2gtylAWcpn-8" vertex="1">
                    <mxGeometry y="60" width="220" height="120" as="geometry"/>
                </mxCell>
                <mxCell id="BFtSv0qSV-2gtylAWcpn-10" value="" style="line;strokeWidth=1;fillColor=none;align=left;verticalAlign=middle;spacingTop=-1;spacingLeft=3;spacingRight=3;rotatable=0;labelPosition=right;points=[];portConstraint=eastwest;" parent="BFtSv0qSV-2gtylAWcpn-8" vertex="1">
                    <mxGeometry y="180" width="220" height="8" as="geometry"/>
                </mxCell>
                <mxCell id="BFtSv0qSV-2gtylAWcpn-11" value="selectCategory" style="swimlane;fontStyle=1;align=center;verticalAlign=top;childLayout=stackLayout;horizontal=1;startSize=60;horizontalStack=0;resizeParent=1;resizeParentMax=0;resizeLast=0;collapsible=1;marginBottom=0;fontSize=20;fillColor=#60a917;strokeColor=#2D7600;fontColor=#ffffff;" parent="1" vertex="1">
                    <mxGeometry x="730" y="40" width="220" height="188" as="geometry"/>
                </mxCell>
                <mxCell id="BFtSv0qSV-2gtylAWcpn-12" value="+ id:int" style="text;strokeColor=#006EAF;fillColor=#1ba1e2;align=left;verticalAlign=top;spacingLeft=4;spacingRight=4;overflow=hidden;rotatable=0;points=[[0,0.5],[1,0.5]];portConstraint=eastwest;fontSize=18;fontColor=#ffffff;" parent="BFtSv0qSV-2gtylAWcpn-11" vertex="1">
                    <mxGeometry y="60" width="220" height="120" as="geometry"/>
                </mxCell>
                <mxCell id="BFtSv0qSV-2gtylAWcpn-13" value="" style="line;strokeWidth=1;fillColor=none;align=left;verticalAlign=middle;spacingTop=-1;spacingLeft=3;spacingRight=3;rotatable=0;labelPosition=right;points=[];portConstraint=eastwest;" parent="BFtSv0qSV-2gtylAWcpn-11" vertex="1">
                    <mxGeometry y="180" width="220" height="8" as="geometry"/>
                </mxCell>
                <mxCell id="BFtSv0qSV-2gtylAWcpn-14" value="nombreClient" style="swimlane;fontStyle=1;align=center;verticalAlign=top;childLayout=stackLayout;horizontal=1;startSize=60;horizontalStack=0;resizeParent=1;resizeParentMax=0;resizeLast=0;collapsible=1;marginBottom=0;fontSize=20;fillColor=#60a917;strokeColor=#2D7600;fontColor=#ffffff;" parent="1" vertex="1">
                    <mxGeometry x="-280" y="280" width="220" height="188" as="geometry"/>
                </mxCell>
                <mxCell id="BFtSv0qSV-2gtylAWcpn-15" value="+ id:int" style="text;strokeColor=#006EAF;fillColor=#1ba1e2;align=left;verticalAlign=top;spacingLeft=4;spacingRight=4;overflow=hidden;rotatable=0;points=[[0,0.5],[1,0.5]];portConstraint=eastwest;fontSize=18;fontColor=#ffffff;" parent="BFtSv0qSV-2gtylAWcpn-14" vertex="1">
                    <mxGeometry y="60" width="220" height="120" as="geometry"/>
                </mxCell>
                <mxCell id="BFtSv0qSV-2gtylAWcpn-16" value="" style="line;strokeWidth=1;fillColor=none;align=left;verticalAlign=middle;spacingTop=-1;spacingLeft=3;spacingRight=3;rotatable=0;labelPosition=right;points=[];portConstraint=eastwest;" parent="BFtSv0qSV-2gtylAWcpn-14" vertex="1">
                    <mxGeometry y="180" width="220" height="8" as="geometry"/>
                </mxCell>
                <mxCell id="BFtSv0qSV-2gtylAWcpn-17" value="countEmail" style="swimlane;fontStyle=1;align=center;verticalAlign=top;childLayout=stackLayout;horizontal=1;startSize=60;horizontalStack=0;resizeParent=1;resizeParentMax=0;resizeLast=0;collapsible=1;marginBottom=0;fontSize=20;fillColor=#60a917;strokeColor=#2D7600;fontColor=#ffffff;" parent="1" vertex="1">
                    <mxGeometry x="-20" y="280" width="220" height="188" as="geometry"/>
                </mxCell>
                <mxCell id="BFtSv0qSV-2gtylAWcpn-18" value="+ content:string" style="text;strokeColor=#006EAF;fillColor=#1ba1e2;align=left;verticalAlign=top;spacingLeft=4;spacingRight=4;overflow=hidden;rotatable=0;points=[[0,0.5],[1,0.5]];portConstraint=eastwest;fontSize=18;fontColor=#ffffff;" parent="BFtSv0qSV-2gtylAWcpn-17" vertex="1">
                    <mxGeometry y="60" width="220" height="120" as="geometry"/>
                </mxCell>
                <mxCell id="BFtSv0qSV-2gtylAWcpn-19" value="" style="line;strokeWidth=1;fillColor=none;align=left;verticalAlign=middle;spacingTop=-1;spacingLeft=3;spacingRight=3;rotatable=0;labelPosition=right;points=[];portConstraint=eastwest;" parent="BFtSv0qSV-2gtylAWcpn-17" vertex="1">
                    <mxGeometry y="180" width="220" height="8" as="geometry"/>
                </mxCell>
                <mxCell id="BFtSv0qSV-2gtylAWcpn-21" value="imageSlider" style="swimlane;fontStyle=1;align=center;verticalAlign=top;childLayout=stackLayout;horizontal=1;startSize=60;horizontalStack=0;resizeParent=1;resizeParentMax=0;resizeLast=0;collapsible=1;marginBottom=0;fontSize=20;fillColor=#a20025;strokeColor=#6F0000;fontColor=#ffffff;" parent="1" vertex="1">
                    <mxGeometry x="-290" y="550" width="220" height="188" as="geometry"/>
                </mxCell>
                <mxCell id="BFtSv0qSV-2gtylAWcpn-22" value="+ url:string&#10;+alt:string&#10;+photo:string&#10;+testimonial:string&#10;+testimonial.alt:string" style="text;strokeColor=#006EAF;fillColor=#1ba1e2;align=left;verticalAlign=top;spacingLeft=4;spacingRight=4;overflow=hidden;rotatable=0;points=[[0,0.5],[1,0.5]];portConstraint=eastwest;fontSize=18;fontColor=#ffffff;" parent="BFtSv0qSV-2gtylAWcpn-21" vertex="1">
                    <mxGeometry y="60" width="220" height="120" as="geometry"/>
                </mxCell>
                <mxCell id="BFtSv0qSV-2gtylAWcpn-23" value="" style="line;strokeWidth=1;fillColor=none;align=left;verticalAlign=middle;spacingTop=-1;spacingLeft=3;spacingRight=3;rotatable=0;labelPosition=right;points=[];portConstraint=eastwest;" parent="BFtSv0qSV-2gtylAWcpn-21" vertex="1">
                    <mxGeometry y="180" width="220" height="8" as="geometry"/>
                </mxCell>
                <mxCell id="BFtSv0qSV-2gtylAWcpn-24" value="postMail" style="swimlane;fontStyle=1;align=center;verticalAlign=top;childLayout=stackLayout;horizontal=1;startSize=60;horizontalStack=0;resizeParent=1;resizeParentMax=0;resizeLast=0;collapsible=1;marginBottom=0;fontSize=20;fillColor=#d80073;strokeColor=#A50040;fontColor=#ffffff;" parent="1" vertex="1">
                    <mxGeometry x="-290" y="800" width="220" height="248" as="geometry"/>
                </mxCell>
                <mxCell id="BFtSv0qSV-2gtylAWcpn-25" value="+ civility:string&#10;+lastname:string&#10;+firstname:string&#10;+phone:number&#10;+mail:string&#10;+raison:string&#10;+content:string&#10;" style="text;strokeColor=#006EAF;fillColor=#1ba1e2;align=left;verticalAlign=top;spacingLeft=4;spacingRight=4;overflow=hidden;rotatable=0;points=[[0,0.5],[1,0.5]];portConstraint=eastwest;fontSize=18;fontColor=#ffffff;" parent="BFtSv0qSV-2gtylAWcpn-24" vertex="1">
                    <mxGeometry y="60" width="220" height="180" as="geometry"/>
                </mxCell>
                <mxCell id="BFtSv0qSV-2gtylAWcpn-26" value="" style="line;strokeWidth=1;fillColor=none;align=left;verticalAlign=middle;spacingTop=-1;spacingLeft=3;spacingRight=3;rotatable=0;labelPosition=right;points=[];portConstraint=eastwest;" parent="BFtSv0qSV-2gtylAWcpn-24" vertex="1">
                    <mxGeometry y="240" width="220" height="8" as="geometry"/>
                </mxCell>
                <mxCell id="BFtSv0qSV-2gtylAWcpn-27" value="dbConnect" style="swimlane;fontStyle=1;align=center;verticalAlign=top;childLayout=stackLayout;horizontal=1;startSize=60;horizontalStack=0;resizeParent=1;resizeParentMax=0;resizeLast=0;collapsible=1;marginBottom=0;fontSize=20;fillColor=default;strokeColor=#6c8ebf;" parent="1" vertex="1">
                    <mxGeometry x="-1355" y="920" width="220" height="188" as="geometry"/>
                </mxCell>
                <mxCell id="BFtSv0qSV-2gtylAWcpn-28" value="" style="text;strokeColor=#006EAF;fillColor=#1ba1e2;align=left;verticalAlign=top;spacingLeft=4;spacingRight=4;overflow=hidden;rotatable=0;points=[[0,0.5],[1,0.5]];portConstraint=eastwest;fontSize=18;fontColor=#ffffff;" parent="BFtSv0qSV-2gtylAWcpn-27" vertex="1">
                    <mxGeometry y="60" width="220" height="120" as="geometry"/>
                </mxCell>
                <mxCell id="BFtSv0qSV-2gtylAWcpn-29" value="" style="line;strokeWidth=1;fillColor=none;align=left;verticalAlign=middle;spacingTop=-1;spacingLeft=3;spacingRight=3;rotatable=0;labelPosition=right;points=[];portConstraint=eastwest;" parent="BFtSv0qSV-2gtylAWcpn-27" vertex="1">
                    <mxGeometry y="180" width="220" height="8" as="geometry"/>
                </mxCell>
                <mxCell id="BFtSv0qSV-2gtylAWcpn-30" value="returnProducts" style="swimlane;fontStyle=1;align=center;verticalAlign=top;childLayout=stackLayout;horizontal=1;startSize=60;horizontalStack=0;resizeParent=1;resizeParentMax=0;resizeLast=0;collapsible=1;marginBottom=0;fontSize=20;fillColor=#6a00ff;strokeColor=#3700CC;fontColor=#ffffff;" parent="1" vertex="1">
                    <mxGeometry x="-300" y="1090" width="220" height="240" as="geometry"/>
                </mxCell>
                <mxCell id="BFtSv0qSV-2gtylAWcpn-31" value="+ id:int&#10;+name:string&#10;+description:string&#10;+price:float&#10;+img:string&#10;+alt:string&#10;&#10;" style="text;strokeColor=#006EAF;fillColor=#1ba1e2;align=left;verticalAlign=top;spacingLeft=4;spacingRight=4;overflow=hidden;rotatable=0;points=[[0,0.5],[1,0.5]];portConstraint=eastwest;fontSize=18;fontColor=#ffffff;" parent="BFtSv0qSV-2gtylAWcpn-30" vertex="1">
                    <mxGeometry y="60" width="220" height="180" as="geometry"/>
                </mxCell>
                <mxCell id="BFtSv0qSV-2gtylAWcpn-33" value="countProduct" style="swimlane;fontStyle=1;align=center;verticalAlign=top;childLayout=stackLayout;horizontal=1;startSize=60;horizontalStack=0;resizeParent=1;resizeParentMax=0;resizeLast=0;collapsible=1;marginBottom=0;fontSize=20;fillColor=#6a00ff;strokeColor=#3700CC;fontColor=#ffffff;" parent="1" vertex="1">
                    <mxGeometry x="-40" y="1090" width="220" height="188" as="geometry"/>
                </mxCell>
                <mxCell id="BFtSv0qSV-2gtylAWcpn-34" value="+ id:int" style="text;strokeColor=#006EAF;fillColor=#1ba1e2;align=left;verticalAlign=top;spacingLeft=4;spacingRight=4;overflow=hidden;rotatable=0;points=[[0,0.5],[1,0.5]];portConstraint=eastwest;fontSize=18;fontColor=#ffffff;" parent="BFtSv0qSV-2gtylAWcpn-33" vertex="1">
                    <mxGeometry y="60" width="220" height="120" as="geometry"/>
                </mxCell>
                <mxCell id="BFtSv0qSV-2gtylAWcpn-35" value="" style="line;strokeWidth=1;fillColor=none;align=left;verticalAlign=middle;spacingTop=-1;spacingLeft=3;spacingRight=3;rotatable=0;labelPosition=right;points=[];portConstraint=eastwest;" parent="BFtSv0qSV-2gtylAWcpn-33" vertex="1">
                    <mxGeometry y="180" width="220" height="8" as="geometry"/>
                </mxCell>
                <mxCell id="BFtSv0qSV-2gtylAWcpn-36" value="returnProduct" style="swimlane;fontStyle=1;align=center;verticalAlign=top;childLayout=stackLayout;horizontal=1;startSize=60;horizontalStack=0;resizeParent=1;resizeParentMax=0;resizeLast=0;collapsible=1;marginBottom=0;fontSize=20;fillColor=#6a00ff;strokeColor=#3700CC;fontColor=#ffffff;" parent="1" vertex="1">
                    <mxGeometry x="210" y="1090" width="220" height="240" as="geometry"/>
                </mxCell>
                <mxCell id="BFtSv0qSV-2gtylAWcpn-37" value="+ id:int&#10;+name:string&#10;+description:string&#10;+price:float&#10;+img:string&#10;+alt:string&#10;&#10;" style="text;strokeColor=#006EAF;fillColor=#1ba1e2;align=left;verticalAlign=top;spacingLeft=4;spacingRight=4;overflow=hidden;rotatable=0;points=[[0,0.5],[1,0.5]];portConstraint=eastwest;fontSize=18;fontColor=#ffffff;" parent="BFtSv0qSV-2gtylAWcpn-36" vertex="1">
                    <mxGeometry y="60" width="220" height="180" as="geometry"/>
                </mxCell>
                <mxCell id="BFtSv0qSV-2gtylAWcpn-39" value="modifierProduit" style="swimlane;fontStyle=1;align=center;verticalAlign=top;childLayout=stackLayout;horizontal=1;startSize=60;horizontalStack=0;resizeParent=1;resizeParentMax=0;resizeLast=0;collapsible=1;marginBottom=0;fontSize=20;fillColor=#6a00ff;strokeColor=#3700CC;fontColor=#ffffff;" parent="1" vertex="1">
                    <mxGeometry x="450" y="1090" width="220" height="240" as="geometry"/>
                </mxCell>
                <mxCell id="BFtSv0qSV-2gtylAWcpn-40" value="+ id:int&#10;+name:string&#10;+description:string&#10;+price:float&#10;+categories:string&#10;+img:string&#10;+alt:string&#10;&#10;" style="text;strokeColor=#006EAF;fillColor=#1ba1e2;align=left;verticalAlign=top;spacingLeft=4;spacingRight=4;overflow=hidden;rotatable=0;points=[[0,0.5],[1,0.5]];portConstraint=eastwest;fontSize=18;fontColor=#ffffff;" parent="BFtSv0qSV-2gtylAWcpn-39" vertex="1">
                    <mxGeometry y="60" width="220" height="180" as="geometry"/>
                </mxCell>
                <mxCell id="BFtSv0qSV-2gtylAWcpn-42" value="ajouterProduitBdd" style="swimlane;fontStyle=1;align=center;verticalAlign=top;childLayout=stackLayout;horizontal=1;startSize=60;horizontalStack=0;resizeParent=1;resizeParentMax=0;resizeLast=0;collapsible=1;marginBottom=0;fontSize=20;fillColor=#6a00ff;strokeColor=#3700CC;fontColor=#ffffff;" parent="1" vertex="1">
                    <mxGeometry x="700" y="1090" width="220" height="240" as="geometry"/>
                </mxCell>
                <mxCell id="BFtSv0qSV-2gtylAWcpn-43" value="+name:string&#10;+description:string&#10;+price:float&#10;+categories:string&#10;+img:string&#10;+alt:string&#10;&#10;" style="text;strokeColor=#006EAF;fillColor=#1ba1e2;align=left;verticalAlign=top;spacingLeft=4;spacingRight=4;overflow=hidden;rotatable=0;points=[[0,0.5],[1,0.5]];portConstraint=eastwest;fontSize=18;fontColor=#ffffff;" parent="BFtSv0qSV-2gtylAWcpn-42" vertex="1">
                    <mxGeometry y="60" width="220" height="180" as="geometry"/>
                </mxCell>
                <mxCell id="BFtSv0qSV-2gtylAWcpn-46" value="recupInfoUser" style="swimlane;fontStyle=1;align=center;verticalAlign=top;childLayout=stackLayout;horizontal=1;startSize=60;horizontalStack=0;resizeParent=1;resizeParentMax=0;resizeLast=0;collapsible=1;marginBottom=0;fontSize=20;fillColor=#33001A;strokeColor=#b85450;" parent="1" vertex="1">
                    <mxGeometry x="-10" y="1360" width="220" height="180" as="geometry"/>
                </mxCell>
                <mxCell id="BFtSv0qSV-2gtylAWcpn-47" value="+ id:int&#10;+mail:string&#10;+mdp:mixed&#10;+firstname:string&#10;" style="text;strokeColor=#006EAF;fillColor=#1ba1e2;align=left;verticalAlign=top;spacingLeft=4;spacingRight=4;overflow=hidden;rotatable=0;points=[[0,0.5],[1,0.5]];portConstraint=eastwest;fontSize=18;fontColor=#ffffff;" parent="BFtSv0qSV-2gtylAWcpn-46" vertex="1">
                    <mxGeometry y="60" width="220" height="120" as="geometry"/>
                </mxCell>
                <mxCell id="BFtSv0qSV-2gtylAWcpn-48" value="creatUser" style="swimlane;fontStyle=1;align=center;verticalAlign=top;childLayout=stackLayout;horizontal=1;startSize=60;horizontalStack=0;resizeParent=1;resizeParentMax=0;resizeLast=0;collapsible=1;marginBottom=0;fontSize=20;fillColor=#33001A;strokeColor=#b85450;" parent="1" vertex="1">
                    <mxGeometry x="-310" y="1360" width="220" height="318" as="geometry"/>
                </mxCell>
                <mxCell id="BFtSv0qSV-2gtylAWcpn-49" value="+ civility:string&#10;+lastname:string&#10;+firstname:string&#10;+address:string&#10;+codePostal:number&#10;+ville:string&#10;+phone:number&#10;+mail:string&#10;+mdp:mixed&#10;+rgpd:bool&#10;" style="text;strokeColor=#006EAF;fillColor=#1ba1e2;align=left;verticalAlign=top;spacingLeft=4;spacingRight=4;overflow=hidden;rotatable=0;points=[[0,0.5],[1,0.5]];portConstraint=eastwest;fontSize=18;fontColor=#ffffff;" parent="BFtSv0qSV-2gtylAWcpn-48" vertex="1">
                    <mxGeometry y="60" width="220" height="250" as="geometry"/>
                </mxCell>
                <mxCell id="BFtSv0qSV-2gtylAWcpn-50" value="" style="line;strokeWidth=1;fillColor=none;align=left;verticalAlign=middle;spacingTop=-1;spacingLeft=3;spacingRight=3;rotatable=0;labelPosition=right;points=[];portConstraint=eastwest;" parent="BFtSv0qSV-2gtylAWcpn-48" vertex="1">
                    <mxGeometry y="310" width="220" height="8" as="geometry"/>
                </mxCell>
                <mxCell id="BFtSv0qSV-2gtylAWcpn-71" value="" style="html=1;shadow=0;dashed=0;align=center;verticalAlign=middle;shape=mxgraph.arrows2.arrow;dy=0.6;dx=40;notch=0;" parent="1" vertex="1">
                    <mxGeometry x="-450" y="120" width="100" height="70" as="geometry"/>
                </mxCell>
                <mxCell id="BFtSv0qSV-2gtylAWcpn-72" value="&lt;font style=&quot;font-size: 30px;&quot;&gt;AdminModel&lt;/font&gt;" style="rounded=0;whiteSpace=wrap;html=1;fillColor=#60a917;strokeColor=#2D7600;fontColor=#ffffff;" parent="1" vertex="1">
                    <mxGeometry x="-730" y="120" width="210" height="60" as="geometry"/>
                </mxCell>
                <mxCell id="BFtSv0qSV-2gtylAWcpn-73" value="&lt;font style=&quot;font-size: 30px;&quot;&gt;AccueilModel&lt;/font&gt;" style="rounded=0;whiteSpace=wrap;html=1;fillColor=#a20025;strokeColor=#6F0000;fontColor=#ffffff;" parent="1" vertex="1">
                    <mxGeometry x="-840" y="570" width="210" height="60" as="geometry"/>
                </mxCell>
                <mxCell id="BFtSv0qSV-2gtylAWcpn-74" value="" style="html=1;shadow=0;dashed=0;align=center;verticalAlign=middle;shape=mxgraph.arrows2.arrow;dy=0.6;dx=40;notch=0;" parent="1" vertex="1">
                    <mxGeometry x="-600" y="560" width="100" height="70" as="geometry"/>
                </mxCell>
                <mxCell id="BFtSv0qSV-2gtylAWcpn-75" value="&lt;font style=&quot;font-size: 30px;&quot;&gt;ContactModel&lt;/font&gt;" style="rounded=0;whiteSpace=wrap;html=1;fillColor=#d80073;strokeColor=#A50040;fontColor=#ffffff;" parent="1" vertex="1">
                    <mxGeometry x="-840" y="820" width="210" height="60" as="geometry"/>
                </mxCell>
                <mxCell id="BFtSv0qSV-2gtylAWcpn-76" value="" style="html=1;shadow=0;dashed=0;align=center;verticalAlign=middle;shape=mxgraph.arrows2.arrow;dy=0.6;dx=40;notch=0;" parent="1" vertex="1">
                    <mxGeometry x="-600" y="815" width="100" height="70" as="geometry"/>
                </mxCell>
                <mxCell id="BFtSv0qSV-2gtylAWcpn-77" value="&lt;font style=&quot;font-size: 30px;&quot;&gt;ProduitModel&lt;/font&gt;" style="rounded=0;whiteSpace=wrap;html=1;fillColor=#6a00ff;strokeColor=#3700CC;fontColor=#ffffff;" parent="1" vertex="1">
                    <mxGeometry x="-840" y="1170" width="210" height="60" as="geometry"/>
                </mxCell>
                <mxCell id="BFtSv0qSV-2gtylAWcpn-78" value="" style="html=1;shadow=0;dashed=0;align=center;verticalAlign=middle;shape=mxgraph.arrows2.arrow;dy=0.6;dx=40;notch=0;" parent="1" vertex="1">
                    <mxGeometry x="-610" y="1175" width="100" height="70" as="geometry"/>
                </mxCell>
                <mxCell id="BFtSv0qSV-2gtylAWcpn-79" value="&lt;font style=&quot;font-size: 30px;&quot;&gt;UserModel&lt;/font&gt;" style="rounded=0;whiteSpace=wrap;html=1;fillColor=#33001A;strokeColor=#005700;fontColor=#ffffff;" parent="1" vertex="1">
                    <mxGeometry x="-840" y="1380" width="210" height="60" as="geometry"/>
                </mxCell>
                <mxCell id="BFtSv0qSV-2gtylAWcpn-80" value="" style="html=1;shadow=0;dashed=0;align=center;verticalAlign=middle;shape=mxgraph.arrows2.arrow;dy=0.6;dx=40;notch=0;" parent="1" vertex="1">
                    <mxGeometry x="-610" y="1370" width="100" height="70" as="geometry"/>
                </mxCell>
                <mxCell id="BFtSv0qSV-2gtylAWcpn-86" style="edgeStyle=orthogonalEdgeStyle;rounded=0;orthogonalLoop=1;jettySize=auto;html=1;entryX=0;entryY=0.5;entryDx=0;entryDy=0;fontSize=30;" parent="1" source="BFtSv0qSV-2gtylAWcpn-81" target="BFtSv0qSV-2gtylAWcpn-72" edge="1">
                    <mxGeometry relative="1" as="geometry"/>
                </mxCell>
                <mxCell id="BFtSv0qSV-2gtylAWcpn-87" style="edgeStyle=orthogonalEdgeStyle;rounded=0;orthogonalLoop=1;jettySize=auto;html=1;entryX=0;entryY=0.5;entryDx=0;entryDy=0;fontSize=30;" parent="1" source="BFtSv0qSV-2gtylAWcpn-81" target="BFtSv0qSV-2gtylAWcpn-73" edge="1">
                    <mxGeometry relative="1" as="geometry"/>
                </mxCell>
                <mxCell id="BFtSv0qSV-2gtylAWcpn-88" style="edgeStyle=orthogonalEdgeStyle;rounded=0;orthogonalLoop=1;jettySize=auto;html=1;entryX=0;entryY=0.75;entryDx=0;entryDy=0;fontSize=30;" parent="1" source="BFtSv0qSV-2gtylAWcpn-81" target="BFtSv0qSV-2gtylAWcpn-75" edge="1">
                    <mxGeometry relative="1" as="geometry"/>
                </mxCell>
                <mxCell id="BFtSv0qSV-2gtylAWcpn-89" style="edgeStyle=orthogonalEdgeStyle;rounded=0;orthogonalLoop=1;jettySize=auto;html=1;entryX=0;entryY=0.75;entryDx=0;entryDy=0;fontSize=30;" parent="1" source="BFtSv0qSV-2gtylAWcpn-81" target="BFtSv0qSV-2gtylAWcpn-77" edge="1">
                    <mxGeometry relative="1" as="geometry"/>
                </mxCell>
                <mxCell id="BFtSv0qSV-2gtylAWcpn-90" style="edgeStyle=orthogonalEdgeStyle;rounded=0;orthogonalLoop=1;jettySize=auto;html=1;entryX=0;entryY=0.75;entryDx=0;entryDy=0;fontSize=30;" parent="1" source="BFtSv0qSV-2gtylAWcpn-81" target="BFtSv0qSV-2gtylAWcpn-79" edge="1">
                    <mxGeometry relative="1" as="geometry"/>
                </mxCell>
                <mxCell id="BFtSv0qSV-2gtylAWcpn-81" value="&lt;font style=&quot;font-size: 30px;&quot;&gt;Manager&lt;/font&gt;" style="rounded=0;whiteSpace=wrap;html=1;" parent="1" vertex="1">
                    <mxGeometry x="-1350" y="720" width="210" height="60" as="geometry"/>
                </mxCell>
                <mxCell id="BFtSv0qSV-2gtylAWcpn-85" style="edgeStyle=orthogonalEdgeStyle;rounded=0;orthogonalLoop=1;jettySize=auto;html=1;exitX=0.5;exitY=1;exitDx=0;exitDy=0;fontSize=30;" parent="1" source="BFtSv0qSV-2gtylAWcpn-81" target="BFtSv0qSV-2gtylAWcpn-81" edge="1">
                    <mxGeometry relative="1" as="geometry"/>
                </mxCell>
                <mxCell id="BFtSv0qSV-2gtylAWcpn-91" value="" style="html=1;shadow=0;dashed=0;align=center;verticalAlign=middle;shape=mxgraph.arrows2.arrow;dy=0.6;dx=40;direction=south;notch=0;labelBackgroundColor=#00FF00;fontSize=30;" parent="1" vertex="1">
                    <mxGeometry x="-1275" y="800" width="70" height="100" as="geometry"/>
                </mxCell>
            </root>
        </mxGraphModel>
    </diagram>
</mxfile>